<mxfile host="Electron" agent="Mozilla/5.0 (Windows NT 10.0; Win64; x64) AppleWebKit/537.36 (KHTML, like Gecko) draw.io/26.0.9 Chrome/128.0.6613.186 Electron/32.2.5 Safari/537.36" version="26.0.9">
  <diagram name="Страница — 1" id="v9bALeaSFdaCprS97yKo">
    <mxGraphModel dx="4218" dy="584" grid="1" gridSize="10" guides="1" tooltips="1" connect="1" arrows="1" fold="1" page="1" pageScale="1" pageWidth="3300" pageHeight="2339" math="0" shadow="0">
      <root>
        <mxCell id="0" />
        <mxCell id="1" parent="0" />
        <mxCell id="ZfXkkXzuYcZu8Mihrkrz-1" value="Человек" style="html=1;dashed=0;whiteSpace=wrap;" parent="1" vertex="1">
          <mxGeometry x="-10" y="540" width="280" height="270" as="geometry" />
        </mxCell>
        <mxCell id="ZfXkkXzuYcZu8Mihrkrz-3" value="" style="endArrow=classic;html=1;rounded=0;exitX=1;exitY=0.037;exitDx=0;exitDy=0;exitPerimeter=0;entryX=0.077;entryY=0.271;entryDx=0;entryDy=0;entryPerimeter=0;" parent="1" source="ZfXkkXzuYcZu8Mihrkrz-1" target="rAFMm5ivfGVkUlswdbZ_-37" edge="1">
          <mxGeometry width="50" height="50" relative="1" as="geometry">
            <mxPoint x="380" y="280" as="sourcePoint" />
            <mxPoint x="867" y="565" as="targetPoint" />
          </mxGeometry>
        </mxCell>
        <mxCell id="ZfXkkXzuYcZu8Mihrkrz-4" value="" style="endArrow=classic;html=1;rounded=0;entryX=0.998;entryY=0.283;entryDx=0;entryDy=0;entryPerimeter=0;exitX=0;exitY=1;exitDx=0;exitDy=0;" parent="1" source="rAFMm5ivfGVkUlswdbZ_-37" target="ZfXkkXzuYcZu8Mihrkrz-1" edge="1">
          <mxGeometry width="50" height="50" relative="1" as="geometry">
            <mxPoint x="910" y="580" as="sourcePoint" />
            <mxPoint x="281" y="260" as="targetPoint" />
          </mxGeometry>
        </mxCell>
        <mxCell id="ZfXkkXzuYcZu8Mihrkrz-5" value="Запрос на проведение импорта данных" style="text;html=1;align=center;verticalAlign=middle;resizable=0;points=[];autosize=1;strokeColor=none;fillColor=none;" parent="1" vertex="1">
          <mxGeometry x="470" y="430" width="240" height="30" as="geometry" />
        </mxCell>
        <mxCell id="ZfXkkXzuYcZu8Mihrkrz-8" value="Сообщение о результатах импорта" style="text;html=1;align=center;verticalAlign=middle;resizable=0;points=[];autosize=1;strokeColor=none;fillColor=none;" parent="1" vertex="1">
          <mxGeometry x="520" y="530" width="220" height="30" as="geometry" />
        </mxCell>
        <mxCell id="ZfXkkXzuYcZu8Mihrkrz-9" value="" style="endArrow=classic;html=1;rounded=0;entryX=1.006;entryY=0.699;entryDx=0;entryDy=0;exitX=0.013;exitY=0.607;exitDx=0;exitDy=0;exitPerimeter=0;entryPerimeter=0;" parent="1" source="rAFMm5ivfGVkUlswdbZ_-38" target="ZfXkkXzuYcZu8Mihrkrz-1" edge="1">
          <mxGeometry width="50" height="50" relative="1" as="geometry">
            <mxPoint x="844.9400000000005" y="706.74" as="sourcePoint" />
            <mxPoint x="430" y="230" as="targetPoint" />
          </mxGeometry>
        </mxCell>
        <mxCell id="ZfXkkXzuYcZu8Mihrkrz-10" value="Сообщение о проведении расчётов" style="text;html=1;align=center;verticalAlign=middle;resizable=0;points=[];autosize=1;strokeColor=none;fillColor=none;" parent="1" vertex="1">
          <mxGeometry x="480" y="700" width="220" height="30" as="geometry" />
        </mxCell>
        <mxCell id="ZfXkkXzuYcZu8Mihrkrz-11" value="" style="endArrow=classic;html=1;rounded=0;exitX=0.998;exitY=0.407;exitDx=0;exitDy=0;exitPerimeter=0;entryX=0.032;entryY=0.273;entryDx=0;entryDy=0;entryPerimeter=0;" parent="1" edge="1" target="rAFMm5ivfGVkUlswdbZ_-38">
          <mxGeometry width="50" height="50" relative="1" as="geometry">
            <mxPoint x="269.4400000000005" y="674.95" as="sourcePoint" />
            <mxPoint x="839.9999999999991" y="685.06" as="targetPoint" />
          </mxGeometry>
        </mxCell>
        <mxCell id="ZfXkkXzuYcZu8Mihrkrz-12" value="Запрос на проведение расчётов" style="text;html=1;align=center;verticalAlign=middle;resizable=0;points=[];autosize=1;strokeColor=none;fillColor=none;" parent="1" vertex="1">
          <mxGeometry x="490" y="650" width="200" height="30" as="geometry" />
        </mxCell>
        <mxCell id="ZfXkkXzuYcZu8Mihrkrz-13" value="" style="endArrow=classic;html=1;rounded=0;entryX=0;entryY=0;entryDx=0;entryDy=0;" parent="1" target="rAFMm5ivfGVkUlswdbZ_-36" edge="1">
          <mxGeometry width="50" height="50" relative="1" as="geometry">
            <mxPoint x="270" y="750" as="sourcePoint" />
            <mxPoint x="868.8800000000001" y="757.28" as="targetPoint" />
          </mxGeometry>
        </mxCell>
        <mxCell id="ZfXkkXzuYcZu8Mihrkrz-15" value="Запрос на экспорт результатов" style="text;html=1;align=center;verticalAlign=middle;resizable=0;points=[];autosize=1;strokeColor=none;fillColor=none;" parent="1" vertex="1">
          <mxGeometry x="585" y="800" width="200" height="30" as="geometry" />
        </mxCell>
        <mxCell id="ZfXkkXzuYcZu8Mihrkrz-16" value="" style="endArrow=classic;html=1;rounded=0;entryX=1.005;entryY=0.949;entryDx=0;entryDy=0;entryPerimeter=0;" parent="1" target="ZfXkkXzuYcZu8Mihrkrz-1" edge="1">
          <mxGeometry width="50" height="50" relative="1" as="geometry">
            <mxPoint x="960" y="1050" as="sourcePoint" />
            <mxPoint x="430" y="230" as="targetPoint" />
          </mxGeometry>
        </mxCell>
        <mxCell id="ZfXkkXzuYcZu8Mihrkrz-17" value="Сообшение о результах экспорта" style="text;html=1;align=center;verticalAlign=middle;resizable=0;points=[];autosize=1;strokeColor=none;fillColor=none;" parent="1" vertex="1">
          <mxGeometry x="580" y="890" width="210" height="30" as="geometry" />
        </mxCell>
        <mxCell id="rAFMm5ivfGVkUlswdbZ_-24" value="Хранилище данных" style="html=1;dashed=0;whiteSpace=wrap;shape=partialRectangle;right=0;" vertex="1" parent="1">
          <mxGeometry x="1390" y="660" width="280" height="140" as="geometry" />
        </mxCell>
        <mxCell id="rAFMm5ivfGVkUlswdbZ_-25" value="Хранилище результатов" style="html=1;dashed=0;whiteSpace=wrap;shape=partialRectangle;right=0;" vertex="1" parent="1">
          <mxGeometry x="1370" y="930" width="180" height="80" as="geometry" />
        </mxCell>
        <mxCell id="rAFMm5ivfGVkUlswdbZ_-30" style="edgeStyle=orthogonalEdgeStyle;rounded=0;orthogonalLoop=1;jettySize=auto;html=1;exitX=0.5;exitY=1;exitDx=0;exitDy=0;" edge="1" parent="1">
          <mxGeometry relative="1" as="geometry">
            <mxPoint x="1570.000000000001" y="710" as="sourcePoint" />
            <mxPoint x="1570.000000000001" y="710" as="targetPoint" />
          </mxGeometry>
        </mxCell>
        <mxCell id="rAFMm5ivfGVkUlswdbZ_-33" value="" style="endArrow=classic;html=1;rounded=0;entryX=1.009;entryY=0.582;entryDx=0;entryDy=0;entryPerimeter=0;exitX=-0.015;exitY=0.596;exitDx=0;exitDy=0;exitPerimeter=0;" edge="1" parent="1" source="rAFMm5ivfGVkUlswdbZ_-35" target="rAFMm5ivfGVkUlswdbZ_-37">
          <mxGeometry width="50" height="50" relative="1" as="geometry">
            <mxPoint x="1370" y="490" as="sourcePoint" />
            <mxPoint x="1135.38" y="530" as="targetPoint" />
          </mxGeometry>
        </mxCell>
        <mxCell id="rAFMm5ivfGVkUlswdbZ_-34" value="Сырые данные" style="text;html=1;align=center;verticalAlign=middle;resizable=0;points=[];autosize=1;strokeColor=none;fillColor=none;" vertex="1" parent="1">
          <mxGeometry x="1170" y="450" width="110" height="30" as="geometry" />
        </mxCell>
        <mxCell id="rAFMm5ivfGVkUlswdbZ_-35" value="Файл" style="html=1;dashed=0;whiteSpace=wrap;" vertex="1" parent="1">
          <mxGeometry x="1380" y="410" width="230" height="140" as="geometry" />
        </mxCell>
        <mxCell id="rAFMm5ivfGVkUlswdbZ_-36" value="Экспорт" style="shape=ellipse;html=1;dashed=0;whiteSpace=wrap;aspect=fixed;perimeter=ellipsePerimeter;" vertex="1" parent="1">
          <mxGeometry x="940" y="890" width="210" height="210" as="geometry" />
        </mxCell>
        <mxCell id="rAFMm5ivfGVkUlswdbZ_-37" value="Импорт" style="shape=ellipse;html=1;dashed=0;whiteSpace=wrap;aspect=fixed;perimeter=ellipsePerimeter;" vertex="1" parent="1">
          <mxGeometry x="900" y="380" width="190" height="190" as="geometry" />
        </mxCell>
        <mxCell id="rAFMm5ivfGVkUlswdbZ_-38" value="Выполнение расчётов" style="shape=ellipse;html=1;dashed=0;whiteSpace=wrap;aspect=fixed;perimeter=ellipsePerimeter;" vertex="1" parent="1">
          <mxGeometry x="900" y="630" width="190" height="190" as="geometry" />
        </mxCell>
        <mxCell id="rAFMm5ivfGVkUlswdbZ_-40" value="Обработанные данные" style="text;html=1;align=center;verticalAlign=middle;resizable=0;points=[];autosize=1;strokeColor=none;fillColor=none;" vertex="1" parent="1">
          <mxGeometry x="1170" y="590" width="150" height="30" as="geometry" />
        </mxCell>
        <mxCell id="rAFMm5ivfGVkUlswdbZ_-41" value="" style="endArrow=classic;html=1;rounded=0;entryX=0.013;entryY=0.096;entryDx=0;entryDy=0;exitX=0.623;exitY=0.988;exitDx=0;exitDy=0;exitPerimeter=0;entryPerimeter=0;" edge="1" parent="1" source="rAFMm5ivfGVkUlswdbZ_-37" target="rAFMm5ivfGVkUlswdbZ_-24">
          <mxGeometry width="50" height="50" relative="1" as="geometry">
            <mxPoint x="1220" y="640" as="sourcePoint" />
            <mxPoint x="1320" y="670" as="targetPoint" />
          </mxGeometry>
        </mxCell>
        <mxCell id="rAFMm5ivfGVkUlswdbZ_-42" value="" style="endArrow=classic;html=1;rounded=0;exitX=0;exitY=1;exitDx=0;exitDy=0;entryX=0.984;entryY=0.654;entryDx=0;entryDy=0;entryPerimeter=0;" edge="1" parent="1" source="rAFMm5ivfGVkUlswdbZ_-24" target="rAFMm5ivfGVkUlswdbZ_-38">
          <mxGeometry width="50" height="50" relative="1" as="geometry">
            <mxPoint x="1110" y="780" as="sourcePoint" />
            <mxPoint x="1160" y="730" as="targetPoint" />
          </mxGeometry>
        </mxCell>
        <mxCell id="rAFMm5ivfGVkUlswdbZ_-43" value="" style="endArrow=classic;html=1;rounded=0;entryX=0;entryY=0.5;entryDx=0;entryDy=0;exitX=0.974;exitY=0.339;exitDx=0;exitDy=0;exitPerimeter=0;" edge="1" parent="1" source="rAFMm5ivfGVkUlswdbZ_-38" target="rAFMm5ivfGVkUlswdbZ_-24">
          <mxGeometry width="50" height="50" relative="1" as="geometry">
            <mxPoint x="1110" y="780" as="sourcePoint" />
            <mxPoint x="1160" y="730" as="targetPoint" />
          </mxGeometry>
        </mxCell>
        <mxCell id="rAFMm5ivfGVkUlswdbZ_-44" value="Запрос данных" style="text;html=1;align=center;verticalAlign=middle;resizable=0;points=[];autosize=1;strokeColor=none;fillColor=none;" vertex="1" parent="1">
          <mxGeometry x="1165" y="670" width="110" height="30" as="geometry" />
        </mxCell>
        <mxCell id="rAFMm5ivfGVkUlswdbZ_-45" value="Выгруженные данные" style="text;html=1;align=center;verticalAlign=middle;resizable=0;points=[];autosize=1;strokeColor=none;fillColor=none;" vertex="1" parent="1">
          <mxGeometry x="1145" y="740" width="150" height="30" as="geometry" />
        </mxCell>
        <mxCell id="rAFMm5ivfGVkUlswdbZ_-46" value="" style="endArrow=classic;html=1;rounded=0;entryX=0;entryY=0.25;entryDx=0;entryDy=0;exitX=0.703;exitY=0.965;exitDx=0;exitDy=0;exitPerimeter=0;" edge="1" parent="1" source="rAFMm5ivfGVkUlswdbZ_-38" target="rAFMm5ivfGVkUlswdbZ_-25">
          <mxGeometry width="50" height="50" relative="1" as="geometry">
            <mxPoint x="1060" y="930" as="sourcePoint" />
            <mxPoint x="1110" y="880" as="targetPoint" />
          </mxGeometry>
        </mxCell>
        <mxCell id="rAFMm5ivfGVkUlswdbZ_-47" value="Расчитанные показатели" style="text;html=1;align=center;verticalAlign=middle;resizable=0;points=[];autosize=1;strokeColor=none;fillColor=none;" vertex="1" parent="1">
          <mxGeometry x="1140" y="840" width="160" height="30" as="geometry" />
        </mxCell>
        <mxCell id="rAFMm5ivfGVkUlswdbZ_-48" value="" style="endArrow=classic;html=1;rounded=0;entryX=0;entryY=0.5;entryDx=0;entryDy=0;exitX=0.999;exitY=0.461;exitDx=0;exitDy=0;exitPerimeter=0;" edge="1" parent="1" source="rAFMm5ivfGVkUlswdbZ_-36" target="rAFMm5ivfGVkUlswdbZ_-25">
          <mxGeometry width="50" height="50" relative="1" as="geometry">
            <mxPoint x="1060" y="930" as="sourcePoint" />
            <mxPoint x="1110" y="880" as="targetPoint" />
          </mxGeometry>
        </mxCell>
        <mxCell id="rAFMm5ivfGVkUlswdbZ_-49" value="Запрос показателей" style="text;html=1;align=center;verticalAlign=middle;resizable=0;points=[];autosize=1;strokeColor=none;fillColor=none;" vertex="1" parent="1">
          <mxGeometry x="1150" y="938" width="140" height="30" as="geometry" />
        </mxCell>
        <mxCell id="rAFMm5ivfGVkUlswdbZ_-50" value="" style="endArrow=classic;html=1;rounded=0;exitX=0;exitY=1;exitDx=0;exitDy=0;entryX=0.967;entryY=0.715;entryDx=0;entryDy=0;entryPerimeter=0;" edge="1" parent="1" source="rAFMm5ivfGVkUlswdbZ_-25" target="rAFMm5ivfGVkUlswdbZ_-36">
          <mxGeometry width="50" height="50" relative="1" as="geometry">
            <mxPoint x="1060" y="930" as="sourcePoint" />
            <mxPoint x="1110" y="880" as="targetPoint" />
          </mxGeometry>
        </mxCell>
        <mxCell id="rAFMm5ivfGVkUlswdbZ_-51" value="Выгруженные показатели" style="text;html=1;align=center;verticalAlign=middle;resizable=0;points=[];autosize=1;strokeColor=none;fillColor=none;" vertex="1" parent="1">
          <mxGeometry x="1165" y="990" width="170" height="30" as="geometry" />
        </mxCell>
        <mxCell id="rAFMm5ivfGVkUlswdbZ_-53" value="" style="endArrow=classic;html=1;rounded=0;exitX=0.632;exitY=0.996;exitDx=0;exitDy=0;exitPerimeter=0;" edge="1" parent="1" source="rAFMm5ivfGVkUlswdbZ_-36">
          <mxGeometry width="50" height="50" relative="1" as="geometry">
            <mxPoint x="1090" y="1110" as="sourcePoint" />
            <mxPoint x="1290" y="1160" as="targetPoint" />
          </mxGeometry>
        </mxCell>
        <mxCell id="rAFMm5ivfGVkUlswdbZ_-54" value="EXCEL данные&amp;nbsp;" style="text;html=1;align=center;verticalAlign=middle;resizable=0;points=[];autosize=1;strokeColor=none;fillColor=none;" vertex="1" parent="1">
          <mxGeometry x="1140" y="1090" width="110" height="30" as="geometry" />
        </mxCell>
        <mxCell id="rAFMm5ivfGVkUlswdbZ_-55" value="&#xa;&lt;span style=&quot;color: rgb(0, 0, 0); font-family: Helvetica; font-size: 12px; font-style: normal; font-variant-ligatures: normal; font-variant-caps: normal; font-weight: 400; letter-spacing: normal; orphans: 2; text-align: center; text-indent: 0px; text-transform: none; widows: 2; word-spacing: 0px; -webkit-text-stroke-width: 0px; white-space: normal; background-color: rgb(251, 251, 251); text-decoration-thickness: initial; text-decoration-style: initial; text-decoration-color: initial; display: inline !important; float: none;&quot;&gt;Файл - результат&lt;/span&gt;&#xa;&#xa;" style="html=1;dashed=0;whiteSpace=wrap;" vertex="1" parent="1">
          <mxGeometry x="1290" y="1130" width="160" height="64" as="geometry" />
        </mxCell>
      </root>
    </mxGraphModel>
  </diagram>
</mxfile>
